<?xml version="1.0" encoding="UTF-8" standalone="no"?>
<!-- Created with Inkscape (http://www.inkscape.org/) -->

<svg
   width="619.28033"
   height="119.93032"
   viewBox="0 0 163.85125 31.731564"
   version="1.1"
   id="svg1"
   xmlns="http://www.w3.org/2000/svg"
   xmlns:svg="http://www.w3.org/2000/svg">
  <defs
     id="defs1" />
  <g
     id="layer1"
     transform="translate(-27.781251,-177.8)">
    <path
       style="font-style:italic;font-weight:900;font-size:19.2631px;font-family:'Montserrat Black';fill:#f55139;stroke-width:0.354578"
       d="m 28.032167,195.04321 9.862707,-18.14584 h 3.968198 l -9.862707,18.14584 z m 6.934721,0 9.862707,-18.14584 h 3.968198 l -9.862707,18.14584 z"
       id="text9"
       transform="scale(0.99492328,1.0051026)"
       aria-label="//" />
    <path
       style="font-style:italic;font-weight:700;font-size:19.2631px;font-family:Montserrat;stroke-width:0.354578"
       d="m 56.57425,193.34805 q -2.041888,0 -3.54441,-0.73199 -1.483259,-0.75126 -2.311572,-2.06115 -0.80905,-1.32916 -0.80905,-3.06284 0,-1.71441 0.597156,-3.19767 0.616419,-1.48326 1.733679,-2.56199 1.11726,-1.098 2.677571,-1.71442 1.560311,-0.61642 3.467358,-0.61642 1.92631,0 3.332516,0.61642 1.425469,0.59716 2.292309,1.73368 l -2.23452,1.81073 q -0.674208,-0.80905 -1.541048,-1.15579 -0.847576,-0.34673 -1.984099,-0.34673 -1.194312,0 -2.157467,0.40452 -0.943892,0.38527 -1.618101,1.098 -0.674208,0.71273 -1.040207,1.67589 -0.365999,0.94389 -0.365999,2.06115 0,1.02095 0.443051,1.79147 0.443052,0.75126 1.309891,1.17505 0.886103,0.42379 2.157467,0.42379 0.963155,0 1.849258,-0.32748 0.886103,-0.32747 1.714416,-1.02094 l 1.194312,2.36936 q -1.020944,0.78979 -2.369361,1.21358 -1.329154,0.42378 -2.79315,0.42378 z m 2.427151,-2.11894 1.001681,-5.06619 h 2.850939 l -1.11726,5.54777 z m 12.328394,2.11894 q -2.041889,0 -3.525147,-0.73199 -1.463996,-0.75126 -2.253783,-2.06115 -0.789787,-1.32916 -0.789787,-3.06284 0,-1.73368 0.597156,-3.19767 0.597156,-1.48326 1.695153,-2.56199 1.11726,-1.098 2.639044,-1.71442 1.541048,-0.61642 3.409569,-0.61642 2.041889,0 3.505884,0.75126 1.483259,0.732 2.273046,2.06115 0.789787,1.30989 0.789787,3.04357 0,1.73368 -0.597156,3.21694 -0.597156,1.464 -1.714416,2.56199 -1.097997,1.07874 -2.639045,1.69516 -1.521784,0.61641 -3.390305,0.61641 z m 0.269683,-2.6583 q 1.136523,0 2.041889,-0.40453 0.924629,-0.42379 1.560311,-1.15578 0.635682,-0.732 0.963155,-1.67589 0.346736,-0.96316 0.346736,-2.02263 0,-1.00168 -0.423788,-1.75294 -0.423789,-0.77053 -1.252102,-1.19431 -0.80905,-0.42379 -2.003362,-0.42379 -1.136523,0 -2.041889,0.42379 -0.905366,0.40452 -1.560311,1.13652 -0.635682,0.732 -0.982418,1.69515 -0.327473,0.94389 -0.327473,2.00336 0,1.00169 0.423788,1.77221 0.443052,0.75126 1.252102,1.17505 0.828313,0.42379 2.003362,0.42379 z m 7.03104,2.42715 8.706921,-13.48417 h 3.101359 l 3.313253,13.48417 h -3.120622 l -2.619781,-11.94312 h 1.232838 l -7.281452,11.94312 z m 3.6022,-2.88947 1.271364,-2.36936 h 6.953979 l 0.365999,2.36936 z m 23.077192,3.12062 q -1.09799,0 -2.1382,-0.21189 -1.02095,-0.19263 -1.86852,-0.53937 -0.82832,-0.34673 -1.406208,-0.75126 l 1.271368,-2.40788 q 0.63568,0.44305 1.34841,0.77052 0.732,0.30821 1.52179,0.48158 0.78979,0.1541 1.57957,0.1541 0.86684,0 1.48326,-0.19263 0.63568,-0.19263 0.96316,-0.53937 0.34673,-0.34673 0.34673,-0.84757 0,-0.46232 -0.366,-0.75126 -0.366,-0.28895 -0.96315,-0.48158 -0.5779,-0.21189 -1.29063,-0.40453 -0.71273,-0.19263 -1.44473,-0.44305 -0.71274,-0.26968 -1.30989,-0.65494 -0.5779,-0.40453 -0.9439,-1.02095 -0.36599,-0.61642 -0.36599,-1.54104 0,-1.38695 0.75126,-2.40789 0.77052,-1.02095 2.15746,-1.57958 1.38695,-0.57789 3.25547,-0.57789 1.36768,0 2.58125,0.30821 1.21358,0.28895 2.08042,0.84758 l -1.17505,2.38862 q -0.77052,-0.5201 -1.71442,-0.77052 -0.94389,-0.26969 -1.94557,-0.26969 -0.90537,0 -1.56031,0.2119 -0.63568,0.21189 -0.98242,0.59715 -0.32747,0.366 -0.32747,0.84758 0,0.48158 0.34673,0.78979 0.366,0.28894 0.96316,0.50084 0.59716,0.19263 1.30989,0.38526 0.71273,0.19263 1.42547,0.44305 0.71273,0.25042 1.30989,0.63568 0.59716,0.38527 0.96315,0.98242 0.366,0.57789 0.366,1.464 0,1.38694 -0.77052,2.42715 -0.77052,1.02094 -2.17673,1.59883 -1.38694,0.55863 -3.27473,0.55863 z m 10.65252,-0.23115 1.09799,-5.54778 0.34674,1.96484 -3.9682,-9.90123 h 3.12062 l 3.02431,7.5704 -1.88778,0.0193 6.1064,-7.58966 h 3.21694 l -7.89788,9.92049 1.05948,-1.9841 -1.098,5.54778 z m 14.08132,0.23115 q -1.09799,0 -2.1382,-0.21189 -1.02094,-0.19263 -1.86852,-0.53937 -0.82831,-0.34673 -1.40621,-0.75126 l 1.27137,-2.40788 q 0.63568,0.44305 1.34841,0.77052 0.732,0.30821 1.52179,0.48158 0.78979,0.1541 1.57957,0.1541 0.86684,0 1.48326,-0.19263 0.63568,-0.19263 0.96316,-0.53937 0.34673,-0.34673 0.34673,-0.84757 0,-0.46232 -0.366,-0.75126 -0.366,-0.28895 -0.96315,-0.48158 -0.57789,-0.21189 -1.29063,-0.40453 -0.71273,-0.19263 -1.44473,-0.44305 -0.71274,-0.26968 -1.30989,-0.65494 -0.5779,-0.40453 -0.94389,-1.02095 -0.366,-0.61642 -0.366,-1.54104 0,-1.38695 0.75126,-2.40789 0.77052,-1.02095 2.15747,-1.57958 1.38694,-0.57789 3.25546,-0.57789 1.36768,0 2.58125,0.30821 1.21358,0.28895 2.08042,0.84758 l -1.17505,2.38862 q -0.77052,-0.5201 -1.71442,-0.77052 -0.94389,-0.26969 -1.94557,-0.26969 -0.90536,0 -1.56031,0.2119 -0.63568,0.21189 -0.98242,0.59715 -0.32747,0.366 -0.32747,0.84758 0,0.48158 0.34673,0.78979 0.366,0.28894 0.96316,0.50084 0.59716,0.19263 1.30989,0.38526 0.71274,0.19263 1.42547,0.44305 0.71273,0.25042 1.30989,0.63568 0.59716,0.38527 0.96316,0.98242 0.36599,0.57789 0.36599,1.464 0,1.38694 -0.77052,2.42715 -0.77052,1.02094 -2.17673,1.59883 -1.38694,0.55863 -3.27473,0.55863 z m 10.19019,-0.23115 2.17673,-10.94144 h -4.31494 l 0.52011,-2.54273 h 11.75049 l -0.52011,2.54273 h -4.29567 l -2.19599,10.94144 z m 13.59975,-8.05198 h 6.49167 l -0.48158,2.42715 h -6.49167 z m -0.8861,5.54777 h 7.3585 l -0.5201,2.50421 h -10.4406 l 2.69683,-13.48417 h 10.19018 l -0.5201,2.5042 h -7.06956 z m 9.32335,2.50421 2.69683,-13.48417 h 2.54273 l 3.83336,9.5545 -1.34842,-0.0193 7.47409,-9.53523 h 2.67757 l -2.67757,13.48417 h -2.92799 l 1.79146,-9.0344 h 0.59716 l -5.9523,7.60893 h -1.38694 l -3.17841,-7.62819 0.57789,0.0578 -1.79147,8.99587 z m 23.09647,0.23115 q -1.098,0 -2.13821,-0.21189 -1.02094,-0.19263 -1.86852,-0.53937 -0.82831,-0.34673 -1.4062,-0.75126 l 1.27136,-2.40788 q 0.63568,0.44305 1.34842,0.77052 0.732,0.30821 1.52178,0.48158 0.78979,0.1541 1.57958,0.1541 0.86684,0 1.48326,-0.19263 0.63568,-0.19263 0.96315,-0.53937 0.34674,-0.34673 0.34674,-0.84757 0,-0.46232 -0.366,-0.75126 -0.366,-0.28895 -0.96316,-0.48158 -0.57789,-0.21189 -1.29062,-0.40453 -0.71274,-0.19263 -1.44474,-0.44305 -0.71273,-0.26968 -1.30989,-0.65494 -0.57789,-0.40453 -0.94389,-1.02095 -0.366,-0.61642 -0.366,-1.54104 0,-1.38695 0.75126,-2.40789 0.77053,-1.02095 2.15747,-1.57958 1.38694,-0.57789 3.25546,-0.57789 1.36768,0 2.58126,0.30821 1.21357,0.28895 2.08041,0.84758 l -1.17505,2.38862 q -0.77052,-0.5201 -1.71441,-0.77052 -0.94389,-0.26969 -1.94557,-0.26969 -0.90537,0 -1.56032,0.2119 -0.63568,0.21189 -0.98241,0.59715 -0.32748,0.366 -0.32748,0.84758 0,0.48158 0.34674,0.78979 0.366,0.28894 0.96315,0.50084 0.59716,0.19263 1.30989,0.38526 0.71274,0.19263 1.42547,0.44305 0.71274,0.25042 1.3099,0.63568 0.59715,0.38527 0.96315,0.98242 0.366,0.57789 0.366,1.464 0,1.38694 -0.77053,2.42715 -0.77052,1.02094 -2.17673,1.59883 -1.38694,0.55863 -3.27472,0.55863 z"
       id="text10"
       transform="scale(0.99492328,1.0051026)"
       aria-label="GOA SYSTEMS" />
    <path
       style="font-weight:600;font-size:9.92343px;font-family:'Montserrat SemiBold';fill:#f55139;stroke-width:0.354578"
       d="m 27.923008,206.54269 v -6.9464 h 3.03657 q 1.131271,0 1.984686,0.43663 0.853415,0.43663 1.32974,1.21066 0.476324,0.77403 0.476324,1.82591 0,1.04196 -0.476324,1.82591 -0.476325,0.77403 -1.32974,1.21066 -0.853415,0.43663 -1.984686,0.43663 z m 1.290046,-1.09157 h 1.686983 q 0.783951,0 1.349587,-0.29771 0.575559,-0.2977 0.883185,-0.83356 0.31755,-0.53587 0.31755,-1.25036 0,-0.72441 -0.31755,-1.25035 -0.307626,-0.53586 -0.883185,-0.83357 -0.565636,-0.2977 -1.349587,-0.2977 h -1.686983 z m 9.278399,1.16104 q -0.883185,0 -1.548055,-0.34732 -0.654947,-0.35725 -1.022113,-0.9725 -0.357244,-0.61525 -0.357244,-1.3992 0,-0.79388 0.34732,-1.39921 0.357244,-0.61525 0.972496,-0.96257 0.625176,-0.34732 1.419051,-0.34732 0.774027,0 1.379357,0.3374 0.605329,0.33739 0.952649,0.95265 0.34732,0.61525 0.34732,1.44882 0,0.0794 -0.0099,0.17862 0,0.0992 -0.0099,0.18855 h -4.415926 v -0.82365 h 3.76098 l -0.486248,0.25801 q 0.0099,-0.45648 -0.188545,-0.8038 -0.198469,-0.34732 -0.545789,-0.54579 -0.337397,-0.19847 -0.783951,-0.19847 -0.456478,0 -0.803798,0.19847 -0.337397,0.19847 -0.535865,0.55572 -0.188545,0.34732 -0.188545,0.82364 v 0.19847 q 0,0.47632 0.218315,0.84349 0.218315,0.36717 0.615253,0.56564 0.396937,0.19846 0.912955,0.19846 0.446555,0 0.803798,-0.13892 0.357244,-0.13893 0.6351,-0.43663 l 0.66487,0.7641 q -0.357244,0.41678 -0.903033,0.64502 -0.535865,0.21832 -1.230505,0.21832 z m 4.991478,-0.0695 -2.272466,-5.29911 h 1.290046 l 1.954916,4.67394 h -0.6351 l 2.02438,-4.67394 h 1.190812 l -2.272466,5.29911 z m 7.650962,0.0992 q -0.813722,0 -1.498438,-0.26793 -0.684717,-0.26794 -1.190812,-0.74426 -0.506095,-0.48625 -0.783951,-1.13127 -0.277856,-0.65495 -0.277856,-1.42898 0,-0.77402 0.277856,-1.41905 0.277856,-0.65494 0.783951,-1.13127 0.506095,-0.48625 1.190812,-0.75418 0.684716,-0.26793 1.488514,-0.26793 0.813722,0 1.488515,0.26793 0.684717,0.26793 1.190812,0.75418 0.506095,0.47633 0.783951,1.13127 0.277856,0.64503 0.277856,1.41905 0,0.77403 -0.277856,1.42898 -0.277856,0.65494 -0.783951,1.13127 -0.506095,0.47632 -1.190812,0.74426 -0.674793,0.26793 -1.478591,0.26793 z m -0.0099,-1.13127 q 0.525942,0 0.972497,-0.17862 0.446554,-0.17863 0.774027,-0.5061 0.327473,-0.3374 0.506095,-0.77403 0.188545,-0.44655 0.188545,-0.98242 0,-0.53586 -0.188545,-0.97249 -0.178622,-0.44656 -0.506095,-0.77403 -0.327473,-0.3374 -0.774027,-0.51602 -0.446555,-0.17862 -0.972497,-0.17862 -0.525941,0 -0.972496,0.17862 -0.436631,0.17862 -0.774027,0.51602 -0.327474,0.32747 -0.516019,0.77403 -0.178622,0.43663 -0.178622,0.97249 0,0.52595 0.178622,0.9725 0.188545,0.44655 0.516019,0.78395 0.327473,0.32747 0.774027,0.5061 0.446555,0.17862 0.972496,0.17862 z m 7.928811,1.1015 q -0.645023,0 -1.180888,-0.2977 -0.525942,-0.29771 -0.843492,-0.89311 -0.307626,-0.60533 -0.307626,-1.52821 0,-0.9328 0.297703,-1.52821 0.307626,-0.59541 0.833568,-0.88319 0.525942,-0.2977 1.200735,-0.2977 0.783951,0 1.379357,0.3374 0.605329,0.33739 0.952649,0.94272 0.357244,0.60533 0.357244,1.42898 0,0.82364 -0.357244,1.4389 -0.34732,0.60532 -0.952649,0.94272 -0.595406,0.3374 -1.379357,0.3374 z m -2.937335,1.85568 v -7.22426 h 1.180888 v 1.25035 l -0.03969,1.40913 0.09924,1.40913 v 3.15565 z m 2.798407,-2.91749 q 0.446555,0 0.793875,-0.19847 0.357243,-0.19847 0.565635,-0.57556 0.208392,-0.37709 0.208392,-0.88318 0,-0.51602 -0.208392,-0.88319 -0.208392,-0.37709 -0.565635,-0.57556 -0.34732,-0.19846 -0.793875,-0.19846 -0.446554,0 -0.803798,0.19846 -0.357243,0.19847 -0.565635,0.57556 -0.208392,0.36717 -0.208392,0.88319 0,0.50609 0.208392,0.88318 0.208392,0.37709 0.565635,0.57556 0.357244,0.19847 0.803798,0.19847 z m 5.646423,1.06181 q -0.664869,0 -1.280122,-0.1687 -0.605329,-0.17862 -0.962573,-0.42671 l 0.476325,-0.94272 q 0.357243,0.22824 0.853415,0.37709 0.496171,0.14885 0.992343,0.14885 0.585482,0 0.843491,-0.15878 0.267933,-0.15877 0.267933,-0.4267 0,-0.21832 -0.178622,-0.32748 -0.178621,-0.11908 -0.466401,-0.17862 -0.287779,-0.0595 -0.645023,-0.10916 -0.34732,-0.0496 -0.704563,-0.129 -0.347321,-0.0893 -0.6351,-0.24809 -0.287779,-0.1687 -0.466401,-0.44655 -0.178622,-0.27786 -0.178622,-0.73434 0,-0.50609 0.287779,-0.87326 0.28778,-0.37709 0.803798,-0.57556 0.525942,-0.20839 1.240429,-0.20839 0.535865,0 1.081654,0.11908 0.545789,0.11908 0.903032,0.3374 l -0.476324,0.94273 q -0.377091,-0.22824 -0.764105,-0.30763 -0.37709,-0.0893 -0.75418,-0.0893 -0.565636,0 -0.843492,0.1687 -0.267932,0.16869 -0.267932,0.4267 0,0.23817 0.178621,0.35725 0.178622,0.11908 0.466401,0.18854 0.28778,0.0695 0.6351,0.11908 0.357244,0.0397 0.704564,0.12901 0.34732,0.0893 0.635099,0.24808 0.297703,0.14886 0.476325,0.42671 0.178622,0.27786 0.178622,0.72441 0,0.49617 -0.297703,0.86334 -0.28778,0.36717 -0.823645,0.57556 -0.535865,0.19847 -1.280123,0.19847 z m 8.48453,0.0298 q -0.813721,0 -1.557979,-0.22824 -0.744257,-0.23816 -1.180888,-0.60533 l 0.446555,-1.00227 q 0.416784,0.32748 1.032036,0.54579 0.615253,0.21832 1.260276,0.21832 0.545789,0 0.883185,-0.11908 0.337397,-0.11908 0.496172,-0.31755 0.158775,-0.2084 0.158775,-0.4664 0,-0.31755 -0.228239,-0.5061 -0.228239,-0.19847 -0.595406,-0.30763 -0.357243,-0.11908 -0.803798,-0.21831 -0.436631,-0.0992 -0.883185,-0.22824 -0.436631,-0.13893 -0.803798,-0.34732 -0.357244,-0.21832 -0.585482,-0.57556 -0.228239,-0.35724 -0.228239,-0.91295 0,-0.56564 0.297703,-1.03204 0.307626,-0.47633 0.922879,-0.75418 0.625176,-0.28778 1.577825,-0.28778 0.625176,0 1.240429,0.15877 0.615253,0.15878 1.07173,0.45648 l -0.40686,1.00227 q -0.466402,-0.27786 -0.962573,-0.40686 -0.496172,-0.13893 -0.952649,-0.13893 -0.535866,0 -0.873262,0.129 -0.327473,0.12901 -0.486248,0.3374 -0.148852,0.20839 -0.148852,0.47632 0,0.31755 0.218316,0.51602 0.228239,0.18855 0.585482,0.29771 0.367167,0.10915 0.813721,0.21831 0.446555,0.0992 0.883186,0.22824 0.446554,0.12901 0.803798,0.3374 0.367166,0.20839 0.585482,0.56563 0.228239,0.35725 0.228239,0.90303 0,0.55572 -0.307626,1.03204 -0.297703,0.4664 -0.92288,0.75418 -0.625176,0.27786 -1.577825,0.27786 z m 6.460144,-0.0298 q -0.883185,0 -1.548055,-0.34732 -0.654946,-0.35725 -1.022113,-0.9725 -0.357244,-0.61525 -0.357244,-1.3992 0,-0.79388 0.347321,-1.39921 0.357243,-0.61525 0.972496,-0.96257 0.625176,-0.34732 1.41905,-0.34732 0.774028,0 1.379357,0.3374 0.605329,0.33739 0.952649,0.95265 0.34732,0.61525 0.34732,1.44882 0,0.0794 -0.0099,0.17862 0,0.0992 -0.0099,0.18855 h -4.415927 v -0.82365 h 3.76098 l -0.486248,0.25801 q 0.0099,-0.45648 -0.188545,-0.8038 -0.198469,-0.34732 -0.545789,-0.54579 -0.337396,-0.19847 -0.783951,-0.19847 -0.456478,0 -0.803798,0.19847 -0.337396,0.19847 -0.535865,0.55572 -0.188545,0.34732 -0.188545,0.82364 v 0.19847 q 0,0.47632 0.218315,0.84349 0.218316,0.36717 0.615253,0.56564 0.396937,0.19846 0.912956,0.19846 0.446554,0 0.803798,-0.13892 0.357243,-0.13893 0.635099,-0.43663 l 0.66487,0.7641 q -0.357244,0.41678 -0.903032,0.64502 -0.535865,0.21832 -1.230506,0.21832 z m 3.68159,-0.0695 v -5.29911 h 1.180889 v 1.45875 l -0.138929,-0.42671 q 0.238163,-0.53587 0.744258,-0.81372 0.516018,-0.27786 1.280122,-0.27786 v 1.18089 q -0.07939,-0.0198 -0.148851,-0.0198 -0.06946,-0.01 -0.138928,-0.01 -0.704564,0 -1.121348,0.41678 -0.416784,0.40686 -0.416784,1.22059 v 2.57016 z m 5.725816,0 -2.272466,-5.29911 h 1.290046 l 1.954916,4.67394 h -0.635099 l 2.024379,-4.67394 h 1.190812 l -2.272466,5.29911 z m 4.326606,0 v -5.29911 h 1.240429 v 5.29911 z m 0.625176,-6.17237 q -0.34732,0 -0.575559,-0.21832 -0.218315,-0.21831 -0.218315,-0.52594 0,-0.31755 0.218315,-0.52594 0.228239,-0.21831 0.575559,-0.21831 0.34732,0 0.565636,0.20839 0.228238,0.19847 0.228238,0.50609 0,0.32748 -0.218315,0.55571 -0.218316,0.21832 -0.575559,0.21832 z m 4.673931,6.24184 q -0.833568,0 -1.488515,-0.34732 -0.645023,-0.35725 -1.01219,-0.9725 -0.367167,-0.61525 -0.367167,-1.3992 0,-0.79388 0.367167,-1.39921 0.367167,-0.61525 1.01219,-0.96257 0.654947,-0.34732 1.488515,-0.34732 0.774027,0 1.35951,0.31755 0.595402,0.30763 0.903032,0.91296 l -0.952649,0.55571 q -0.238163,-0.37709 -0.585483,-0.55571 -0.337396,-0.17862 -0.734334,-0.17862 -0.456477,0 -0.823644,0.19846 -0.367167,0.19847 -0.575559,0.57556 -0.208392,0.36717 -0.208392,0.88319 0,0.51602 0.208392,0.89311 0.208392,0.36716 0.575559,0.56563 0.367167,0.19847 0.823644,0.19847 0.396938,0 0.734334,-0.17862 0.34732,-0.17862 0.585483,-0.55571 l 0.952649,0.55571 q -0.30763,0.59541 -0.903032,0.92288 -0.585483,0.31755 -1.35951,0.31755 z m 5.745672,0 q -0.88319,0 -1.54806,-0.34732 -0.65495,-0.35725 -1.02211,-0.9725 -0.35725,-0.61525 -0.35725,-1.3992 0,-0.79388 0.34732,-1.39921 0.35725,-0.61525 0.9725,-0.96257 0.62518,-0.34732 1.41905,-0.34732 0.77403,0 1.37936,0.3374 0.60533,0.33739 0.95265,0.95265 0.34732,0.61525 0.34732,1.44882 0,0.0794 -0.01,0.17862 0,0.0992 -0.01,0.18855 h -4.41593 v -0.82365 h 3.76098 l -0.48625,0.25801 q 0.01,-0.45648 -0.18854,-0.8038 -0.19847,-0.34732 -0.54579,-0.54579 -0.3374,-0.19847 -0.78395,-0.19847 -0.45648,0 -0.8038,0.19847 -0.33739,0.19847 -0.53586,0.55572 -0.18855,0.34732 -0.18855,0.82364 v 0.19847 q 0,0.47632 0.21832,0.84349 0.21831,0.36717 0.61525,0.56564 0.39694,0.19846 0.91296,0.19846 0.44655,0 0.80379,-0.13892 0.35725,-0.13893 0.6351,-0.43663 l 0.66487,0.7641 q -0.35724,0.41678 -0.90303,0.64502 -0.53586,0.21832 -1.2305,0.21832 z m 5.31895,0 q -0.66487,0 -1.28012,-0.1687 -0.60533,-0.17862 -0.96257,-0.42671 l 0.47632,-0.94272 q 0.35724,0.22824 0.85342,0.37709 0.49617,0.14885 0.99234,0.14885 0.58548,0 0.84349,-0.15878 0.26793,-0.15877 0.26793,-0.4267 0,-0.21832 -0.17862,-0.32748 -0.17862,-0.11908 -0.4664,-0.17862 -0.28778,-0.0595 -0.64502,-0.10916 -0.34732,-0.0496 -0.70457,-0.129 -0.34732,-0.0893 -0.6351,-0.24809 -0.28778,-0.1687 -0.4664,-0.44655 -0.17862,-0.27786 -0.17862,-0.73434 0,-0.50609 0.28778,-0.87326 0.28778,-0.37709 0.8038,-0.57556 0.52594,-0.20839 1.24043,-0.20839 0.53586,0 1.08165,0.11908 0.54579,0.11908 0.90303,0.3374 l -0.47632,0.94273 q -0.37709,-0.22824 -0.76411,-0.30763 -0.37709,-0.0893 -0.75418,-0.0893 -0.56563,0 -0.84349,0.1687 -0.26793,0.16869 -0.26793,0.4267 0,0.23817 0.17862,0.35725 0.17862,0.11908 0.4664,0.18854 0.28778,0.0695 0.6351,0.11908 0.35725,0.0397 0.70457,0.12901 0.34732,0.0893 0.63509,0.24808 0.29771,0.14886 0.47633,0.42671 0.17862,0.27786 0.17862,0.72441 0,0.49617 -0.2977,0.86334 -0.28778,0.36717 -0.82365,0.57556 -0.53586,0.19847 -1.28012,0.19847 z"
       id="text11"
       transform="scale(0.99492328,1.0051026)"
       aria-label="DevOps Services" />
  </g>
</svg>
